<svg width="36" height="35" viewBox="0 0 36 35" fill="none" xmlns="http://www.w3.org/2000/svg">
<path d="M11.041 24.8106L17.4766 24.7887L31.5233 10.8762C32.0746 10.325 32.3779 9.59288 32.3779 8.81413C32.3779 8.03538 32.0746 7.30329 31.5233 6.75204L29.2104 4.43913C28.1079 3.33663 26.1844 3.34246 25.0906 4.43475L11.041 18.3502V24.8106ZM27.1483 6.50121L29.4656 8.80975L27.1366 11.1168L24.8237 8.80538L27.1483 6.50121ZM13.9577 19.5664L22.7514 10.8558L25.0643 13.1687L16.2721 21.8764L13.9577 21.8837V19.5664Z" fill="black"/>
<path d="M8.12467 30.625H28.5413C30.1499 30.625 31.458 29.3169 31.458 27.7083V15.0675L28.5413 17.9842V27.7083H12.7301C12.6922 27.7083 12.6528 27.7229 12.6149 27.7229C12.5668 27.7229 12.5186 27.7098 12.469 27.7083H8.12467V7.29167H18.1099L21.0266 4.375H8.12467C6.51613 4.375 5.20801 5.68313 5.20801 7.29167V27.7083C5.20801 29.3169 6.51613 30.625 8.12467 30.625Z" fill="black"/>
</svg>
