<svg width="27" height="31" viewBox="0 0 27 31" fill="none" xmlns="http://www.w3.org/2000/svg">
<path d="M1 7.79167H25.6667M10.25 13.9583V23.2083M16.4167 13.9583V23.2083M2.54167 7.79167L4.08333 26.2917C4.08333 27.1094 4.40818 27.8937 4.98642 28.4719C5.56466 29.0501 6.34892 29.375 7.16667 29.375H19.5C20.3178 29.375 21.102 29.0501 21.6802 28.4719C22.2585 27.8937 22.5833 27.1094 22.5833 26.2917L24.125 7.79167M8.70833 7.79167V3.16667C8.70833 2.75779 8.87076 2.36566 9.15988 2.07654C9.449 1.78743 9.84112 1.625 10.25 1.625H16.4167C16.8255 1.625 17.2177 1.78743 17.5068 2.07654C17.7959 2.36566 17.9583 2.75779 17.9583 3.16667V7.79167" stroke="black" stroke-width="2" stroke-linecap="round" stroke-linejoin="round"/>
</svg>
