<svg width="33" height="33" viewBox="0 0 33 33" fill="none" xmlns="http://www.w3.org/2000/svg">
<path d="M11.6276 6.48103C10.0689 6.54105 8.65972 7.09736 7.90632 7.85165C7.82309 7.93482 7.72429 8.00079 7.61556 8.04578C7.50684 8.09077 7.39032 8.11391 7.27265 8.11386C7.15498 8.11382 7.03848 8.09061 6.92978 8.04554C6.82109 8.00047 6.72234 7.93444 6.63917 7.8512C6.55599 7.76797 6.49003 7.66917 6.44504 7.56045C6.40005 7.45172 6.37691 7.3352 6.37695 7.21753C6.37699 7.09987 6.40021 6.98336 6.44528 6.87467C6.49035 6.76597 6.55638 6.66722 6.63961 6.58405C7.80151 5.42215 9.69351 4.76282 11.5577 4.69026C13.4345 4.61769 15.4833 5.13101 16.9184 6.56613C17.0864 6.73423 17.1807 6.96216 17.1806 7.1998C17.1805 7.43744 17.0861 7.66531 16.918 7.83329C16.7499 8.00126 16.5219 8.09558 16.2843 8.0955C16.0466 8.09542 15.8188 8.00093 15.6508 7.83284C14.6743 6.85548 13.1747 6.42011 11.6276 6.48013" fill="black"/>
<path fill-rule="evenodd" clip-rule="evenodd" d="M20.7548 19.5315C22.531 17.4324 23.5038 14.7706 23.4997 12.0208C23.4997 5.58875 18.2859 0.375 11.8538 0.375C5.42176 0.375 0.208008 5.58875 0.208008 12.0208C0.208008 18.4529 5.42176 23.6667 11.8538 23.6667C14.716 23.6667 17.3363 22.6347 19.3645 20.9218L19.0205 22.8998L25.7518 29.6311L29.4641 25.9188L22.7328 19.1875L20.7548 19.5315ZM11.8538 20.9792C16.8015 20.9792 20.8122 16.9685 20.8122 12.0208C20.8122 7.07315 16.8015 3.0625 11.8538 3.0625C6.90615 3.0625 2.89551 7.07315 2.89551 12.0208C2.89551 16.9685 6.90615 20.9792 11.8538 20.9792Z" fill="black"/>
<path d="M27.0186 30.8979L30.7309 27.1855L31.9456 28.4003C32.6292 29.0838 32.6292 30.192 31.9456 30.8746L30.7076 32.1126C30.0241 32.7962 28.9159 32.7962 28.2333 32.1126L27.0186 30.8979Z" fill="black"/>
</svg>
